<svg width="580" height="399.99999999999994" xmlns="http://www.w3.org/2000/svg">
 <!-- Created with Method Draw - http://github.com/duopixel/Method-Draw/ -->

 <g stroke="null">
  <title>background</title>
  <rect stroke="null" x="-1" y="-1" width="250.079479" height="173.089296" id="canvas_background" fill="none"/>
  <g stroke="null" id="canvasGrid" display="none">
   <rect stroke="null" id="svg_2" width="100%" height="100%" x="0" y="0" stroke-width="0" fill="url(#gridpattern)"/>
  </g>
 </g>
 <g stroke="null">
  <title>Layer 1</title>
  <rect stroke="#1e3a8a" fill="none" stroke-width="3" x="105.4878" y="94.28073" width="370" height="229" id="svg_7" rx="5"/>
  <rect stroke="#1e3a8a" fill="none" stroke-width="3" x="118.57456" y="103.10493" width="343.82646" height="208.15526" id="svg_8" rx="5"/>
  <line stroke="#1e3a8a" fill="none" stroke-width="3" stroke-opacity="null" fill-opacity="null" x1="248.32787" y1="322.75414" x2="231.35834" y2="364.7344" id="svg_10" stroke-linejoin="null" stroke-linecap="null"/>
  <line stroke="#1e3a8a" fill="none" stroke-width="3" stroke-opacity="null" fill-opacity="null" x1="333.0898" y1="323.65059" x2="351.15474" y2="366.28073" id="svg_11" stroke-linejoin="null" stroke-linecap="null"/>
  <line stroke="#1e3a8a" fill="none" stroke-width="3" stroke-opacity="null" fill-opacity="null" x1="219.60545" y1="365.45353" x2="361.37015" y2="365.45353" id="svg_12" stroke-linejoin="null" stroke-linecap="null"/>
  <ellipse stroke="#1e3a8a" fill="#ffffff" cx="290.4878" cy="316.93979" id="svg_13" rx="3.32574" ry="3.32574"/>
  <rect stroke="#1e3a8a" fill="#ffffff" stroke-width="2" stroke-opacity="null" fill-opacity="null" x="74.11739" y="272.16351" width="52.88432" height="94.11721" id="svg_17" rx="5"/>
  <rect stroke="#1e3a8a" fill="#ffffff" stroke-width="2" stroke-opacity="null" fill-opacity="null" x="79.67025" y="280.39234" width="41.77862" height="76.11664" id="svg_18" rx="1"/>
  <ellipse stroke="#1e3a8a" fill="#ffffff" stroke-opacity="null" fill-opacity="null" cx="100.55956" cy="361.39485" id="svg_20" rx="2.90864" ry="2.82866"/>
  <line stroke="#1e3a8a" fill="#ffffff" stroke-opacity="null" fill-opacity="null" x1="98.17976" y1="275.76362" x2="102.93935" y2="275.76362" id="svg_23" stroke-linejoin="null" stroke-linecap="null"/>
  <rect stroke="#1e3a8a" fill="#ffffff" stroke-width="2" x="408.41439" y="221.94741" width="116.99999" height="144.33333" id="svg_1" rx="5"/>
  <rect stroke="#1e3a8a" fill="#ffffff" stroke-width="2" x="413.9159" y="228.20768" width="105.99695" height="125.14988" id="svg_4" rx="3"/>
  <ellipse stroke="#1e3a8a" fill="#ffffff" cx="466.9144" cy="359.7176" id="svg_3" rx="3.88129" ry="3.88129"/>
  <path fill="#fff" d="m110.52846,88.43147l2.59973,9.09904c-0.76187,0.66831 -1.47697,1.3834 -2.15196,2.14862l-9.09236,-2.59973c-0.95903,1.39677 -1.78439,2.88042 -2.52287,4.42087l6.76664,6.54944c-0.32413,0.96237 -0.60482,1.94144 -0.80531,2.95059l-9.11909,2.28562c-0.06683,0.84207 -0.13032,1.68748 -0.13032,2.5496s0.06683,1.70419 0.13032,2.54626l9.11909,2.28562c0.20383,1.00915 0.48452,1.98822 0.80531,2.95059l-6.76998,6.54944c0.74182,1.53711 1.56719,3.0241 2.52621,4.42087l9.09236,-2.59639c0.67165,0.76187 1.39009,1.47697 2.15196,2.14862l-2.59973,9.0957c1.39677,0.95568 2.88376,1.78439 4.42421,2.52287l6.54944,-6.76998c0.95903,0.32413 1.94144,0.60148 2.95059,0.80531l2.28228,9.12244c0.84541,0.06349 1.68748,0.13032 2.5496,0.13032s1.70419,-0.06683 2.54626,-0.13032l2.28562,-9.12244c1.00915,-0.20383 1.98822,-0.48118 2.95059,-0.80531l6.54944,6.76998c1.53711,-0.74851 3.02076,-1.57387 4.41753,-2.5329l-2.59973,-9.0957c0.76187,-0.66831 1.48031,-1.38674 2.14862,-2.14528l9.0957,2.59973c0.95903,-1.39677 1.78439,-2.88376 2.52287,-4.42421l-6.76998,-6.54944c0.32079,-0.96237 0.60148,-1.94144 0.80531,-2.95059l9.12243,-2.28562c0.06349,-0.84207 0.13032,-1.68748 0.13032,-2.54626s-0.06683,-1.70419 -0.13032,-2.5496l-9.12243,-2.28562c-0.20383,-1.00915 -0.48452,-1.98822 -0.80531,-2.95059l6.76998,-6.54944c-0.73848,-1.53711 -1.56385,-3.0241 -2.52287,-4.42087l-9.0957,2.59973c-0.66831,-0.76522 -1.38674,-1.47697 -2.14862,-2.14862l2.59973,-9.09904c-1.39677,-0.95568 -2.88376,-1.78105 -4.42087,-2.52287l-6.54944,6.76998c-0.96237,-0.32413 -1.94144,-0.60482 -2.95059,-0.80531l-2.28562,-9.11909c-0.84207,-0.06683 -1.68748,-0.13032 -2.5496,-0.13032s-1.70419,0.06683 -2.5496,0.13032l-2.28228,9.11909c-1.00915,0.20383 -1.99156,0.48452 -2.95059,0.80531l-6.54944,-6.76998c-1.53377,0.74851 -3.02076,1.57387 -4.41753,2.52955l0,0.00001zm18.75278,16.04279c6.27209,0 11.35793,5.08584 11.35793,11.35793s-5.08584,11.35459 -11.35793,11.35459s-11.35459,-5.0825 -11.35459,-11.35459s5.0825,-11.35793 11.35459,-11.35793zm-51.76731,-23.74172c-0.06349,1.82783 0.20049,3.68907 0.76856,5.52693l-4.15689,5.92457c0.62821,1.16954 1.33662,2.27894 2.14193,3.28809l7.09077,-1.48699c1.43018,1.21632 3.05752,2.16533 4.79847,2.84366l2.04169,6.94709c1.28984,0.22723 2.59638,0.35086 3.91964,0.3542l3.25467,-6.46924c0.93229,-0.18044 1.86459,-0.42772 2.78017,-0.77858c0.85878,-0.32747 1.66075,-0.73514 2.42931,-1.17957l6.70315,2.73673c0.99244,-0.87549 1.898,-1.82115 2.71668,-2.847l-3.03079,-6.57617c0.86546,-1.65407 1.46026,-3.43511 1.73426,-5.29636l6.31887,-3.54204c-0.06349,-1.29652 -0.25396,-2.59304 -0.54801,-3.89291l-7.03062,-1.73427c-0.7719,-1.75097 -1.80778,-3.31816 -3.06086,-4.65478l1.17623,-7.14424c-1.0693,-0.76856 -2.20542,-1.43018 -3.38499,-2.00493l-5.73076,4.41085c-1.79107,-0.47116 -3.66568,-0.6516 -5.55366,-0.50123l-4.85193,-5.36987c-0.66831,0.19047 -1.33328,0.3943 -1.99156,0.64492c-0.58477,0.22054 -1.13613,0.48118 -1.68748,0.74517l-0.12364,7.23446c-1.52041,1.13279 -2.81693,2.49614 -3.84947,4.02991l-7.22109,0.44777c-0.50792,1.19962 -0.93229,2.44602 -1.22969,3.72583l5.57705,4.61802l-0.00001,-0.00002zm13.91088,-6.70649c4.0132,-1.53043 8.50425,0.48118 10.03802,4.49439s-0.47784,8.50759 -4.49104,10.04136c-4.0132,1.53043 -8.51093,-0.48118 -10.0447,-4.49439c-1.53043,-4.0132 0.48452,-8.50759 4.49773,-10.04136l-0.00001,0z" id="svg_5" stroke="#1e3a8a" stroke-width="2"/>
  <rect fill="#ffffff" stroke-width="2" x="227.1636" y="50.13333" width="169.09092" height="103.0303" id="svg_6" rx="10" stroke="#1e3a8a"/>
  <line fill="none" stroke="#1e3a8a" stroke-width="2" x1="226.79987" y1="66.39991" x2="396.01165" y2="66.39991" id="svg_14"/>
  <ellipse fill="#1e3aee" stroke="#1e3a8a" stroke-width="2" cx="384.79982" cy="58.39991" id="svg_15" rx="1.2" ry="1.2"/>
  <ellipse fill="#1e3aee" stroke="#1e3a8a" stroke-width="2" cx="377.19983" cy="58.39991" id="svg_19" rx="1.2" ry="1.2"/>
  <ellipse fill="#1e3aee" stroke="#1e3a8a" stroke-width="2" cx="369.19983" cy="58.39991" id="svg_22" rx="1.2" ry="1.2"/>
  <text fill="#1e3a8a" stroke="#1e3a8a" stroke-width="0" x="239.19987" y="88.39991" id="svg_30" font-size="24" font-family="Noto Sans JP" text-anchor="start" xml:space="preserve">--- .. --</text>
  <text fill="#1e3a8a" stroke="#1e3a8a" stroke-width="0" x="247.59986" y="108.7999" id="svg_31" font-size="24" font-family="Noto Sans JP" text-anchor="start" xml:space="preserve">- .. ---  --</text>
  <text fill="#1e3a8a" stroke="#1e3a8a" stroke-width="0" x="239.19987" y="135.99989" id="svg_32" font-size="24" font-family="Noto Sans JP" text-anchor="start" xml:space="preserve">-- -- . -- ...</text>
  <text style="cursor: move;" fill="#1e3a8a" stroke="#000" stroke-width="0" x="219.02854" y="212.34491" id="svg_24" font-size="24" font-family="sans-serif" text-anchor="start" xml:space="preserve" font-weight="normal" font-style="normal">Hello I'm Ryu</text>
  <rect fill="#ffffff" stroke-width="2" x="30.00004" y="158.829" width="111.69961" height="103.0303" id="svg_34" rx="10" stroke="#1e3a8a"/>
  <line fill="none" stroke-width="2" x1="30.94066" y1="175.09557" x2="141.45679" y2="175.09557" id="svg_35" stroke="#1e3a8a"/>
  <ellipse fill="#1e3aee" stroke="#1e3a8a" stroke-width="2" cx="130.24496" cy="167.09558" id="svg_36" rx="1.2" ry="1.2"/>
  <ellipse fill="#1e3aee" stroke="#1e3a8a" stroke-width="2" cx="122.64496" cy="167.09558" id="svg_37" rx="1.2" ry="1.2"/>
  <ellipse fill="#1e3aee" stroke="#1e3a8a" stroke-width="2" cx="114.64497" cy="167.09558" id="svg_38" rx="1.2" ry="1.2"/>
  <text fill="#1e3a8a" stroke="#1e3a8a" stroke-width="0" x="39.0401" y="236.95655" id="svg_43" font-size="7" font-family="sans-serif" text-anchor="start" xml:space="preserve" font-weight="normal" font-style="normal">return &lt;h2&gt;{ str1+ str2 }&lt;/h2&gt;;</text>
  <text fill="#1e3a8a" stroke="#1e3a8a" stroke-width="0" x="39.04622" y="197.39133" id="svg_44" font-size="7" font-family="sans-serif" text-anchor="start" xml:space="preserve">let str1 = "Hello ";</text>
  <text fill="#1e3a8a" stroke="#1e3a8a" stroke-width="0" x="39.04622" y="217.39133" id="svg_45" font-size="7" font-family="sans-serif" text-anchor="start" xml:space="preserve">let str2 = "I'm Ryu";</text>
  <rect id="svg_40" height="5.36585" width="5.36585" y="296.58728" x="84.14611" stroke-width="0" stroke="#000" fill="#1e3a8a"/>
  <text font-weight="bold" xml:space="preserve" text-anchor="start" font-family="sans-serif" font-size="8" stroke-width="0" id="svg_49" y="300.48751" x="93.9022" stroke="#1e3a8a" fill="#1e3a8a">-- _ --</text>
  <rect id="svg_41" height="5.36585" width="5.36585" y="310.2504" x="84.14611" stroke-width="0" stroke="#000" fill="#1e3a8a"/>
  <text font-weight="bold" xml:space="preserve" text-anchor="start" font-family="sans-serif" font-size="8" id="svg_50" y="314.14604" x="93.41439" stroke-width="0" stroke="#1e3a8a" fill="#1e3a8a">^ 口 ^</text>
  <rect stroke="#000" id="svg_42" height="5.36585" width="5.36585" y="322.43871" x="84.1461" stroke-width="0" fill="#1e3a8a"/>
  <text font-weight="bold" xml:space="preserve" text-anchor="start" font-family="sans-serif" font-size="6" id="svg_52" y="326.33749" x="91.95098" stroke-width="0" stroke="#1e3a8a" fill="#1e3a8a">(´・ω・`)</text>
  <path id="svg_59" d="m496.33111,265.20638c-8.7558,0 -15.85364,5.32371 -15.85364,11.8898c0,2.2437 0.83912,4.34054 2.28279,6.13149l-2.28279,5.00496l6.35615,-1.63035c2.64867,1.48949 5.93041,2.38455 9.4975,2.38455c8.75579,0 15.85366,-5.32373 15.85366,-11.89065s-7.09787,-11.8898 -15.85366,-11.8898l0,0l-0.00001,0zm-2.60008,16.4558l-2.6476,2.64543l-7.28123,-7.2823l7.28014,-7.28401l2.64869,2.65148l-4.63256,4.63253l4.63256,4.63687zm8.00738,2.64198l-2.64651,-2.64888l4.63383,-4.63167l-4.63383,-4.63342l2.64651,-2.64889l7.28124,7.27711l-7.28124,7.28575z" stroke-width="0" stroke="#000" fill="#1e3a8a"/>
  <path id="svg_60" d="m491.10263,320.67039c-2.35788,-0.39658 -4.81197,-0.65769 -6.80468,-0.72837l-0.35142,-0.01178c0.08049,-0.17669 0.14136,-0.29645 0.16099,-0.31412c0.04319,-0.03534 0.07853,-0.18455 0.08246,-0.32983c0,-0.08049 0.03534,-0.34161 0.09031,-0.68714c0.5399,0.01963 1.25649,0.03534 2.03787,0.04123c3.01754,0.02356 6.17447,0.267 8.33996,0.64984c1.28987,0.22774 1.7159,0.21989 0.76371,-0.01178c-0.96396,-0.23363 -3.82248,-0.5772 -6.09987,-0.72641c-1.52938,-0.10405 -3.72235,-0.14332 -5.01418,-0.12172c0.0373,-0.22381 0.08049,-0.47315 0.12565,-0.72837c0.18258,-0.98752 0.24345,-1.98094 0.24737,-3.95795c0.00393,-3.06662 -0.16099,-3.91083 -1.16029,-5.93888c-0.4064,-0.8285 -0.8658,-1.53135 -1.42141,-2.16745c0.48493,-1.43122 0.47315,-3.64775 -0.02945,-5.59138c-0.41425,-1.59417 -0.55953,-1.69626 -2.0045,-1.38999c-1.22508,0.26111 -2.20671,0.61647 -3.46517,1.2506c-0.59487,0.30038 -1.41552,0.76764 -2.01039,1.13477c-1.55098,-0.54579 -3.15497,-0.90703 -4.86694,-1.10139c-1.73553,-0.19633 -5.98993,-0.08638 -7.49968,0.1924c-1.47638,0.27289 -2.80551,0.60665 -4.00899,1.00323c-0.60076,-0.37106 -1.47245,-0.87169 -2.09481,-1.18581c-1.26434,-0.6361 -2.24598,-0.98949 -3.47498,-1.2506c-1.44104,-0.30823 -1.59025,-0.20418 -2.00253,1.38999c-0.51045,1.96916 -0.51438,4.22299 -0.00982,5.65028c0.0589,0.16295 0.09424,0.27878 0.10798,0.36909c-2.04572,2.57581 -2.71323,5.45788 -2.26954,9.48061c0.11583,1.04838 0.29449,2.01039 0.54382,2.89189c-1.30557,-0.00785 -3.16282,0.03927 -4.50373,0.12565c-2.28132,0.15117 -5.13983,0.49082 -6.1038,0.72445c-0.95022,0.23167 -0.52812,0.23952 0.76371,0.01374c2.16548,-0.38087 5.32438,-0.62825 8.33996,-0.64984c0.56935,-0.00196 1.10139,-0.01374 1.55883,-0.02552c0.13743,0.46529 0.29449,0.90899 0.47315,1.33109l-0.01374,0.00196c-1.99272,0.06871 -4.44484,0.32983 -6.80272,0.72641c-1.7689,0.29645 -4.38005,0.88936 -4.68435,1.06016c-0.32001,0.17866 -0.0589,0.13939 1.31146,-0.20811c2.49924,-0.63217 5.74844,-1.1171 9.77314,-1.45478l0.44959,-0.03927c0.86384,2.00646 2.19493,3.53781 4.07574,4.73147c1.15047,0.7323 2.99398,1.48423 3.92261,1.60203c0.25522,0.03141 0.99734,0.18455 1.64914,0.33768c0.65377,0.15313 1.93185,0.38284 2.83888,0.51438l0.0216,0c-0.01767,0.01178 -0.03338,0.01963 -0.04908,0.03141c-1.09943,0.57131 -1.81406,1.46067 -2.29506,2.86048c-0.21596,0.06479 -0.48493,0.15313 -0.77549,0.25326c-1.03857,0.35339 -1.443,0.42603 -2.49531,0.43388c-1.09158,0.00785 -1.35073,-0.03927 -2.00253,-0.34553c-0.94826,-0.44173 -1.83173,-1.25453 -2.42071,-2.22438c-0.9836,-1.62166 -2.68379,-2.76821 -4.10126,-2.76821c-1.21134,0 -1.44104,0.49082 -0.56542,1.20741c1.31932,1.07783 2.30488,2.17726 2.70931,3.01754c0.22774,0.47118 0.5772,1.19956 0.77942,1.61773c0.214,0.44566 0.67144,1.05035 1.10728,1.46852c1.02483,0.97771 2.01431,1.44496 3.49069,1.66485c0.98949,0.14528 1.23293,0.14528 2.40108,-0.00393c0.56346,-0.06871 1.03857,-0.14921 1.4646,-0.24933c0,0.47904 0,1.03071 0,1.67859c0,3.46713 -0.04123,4.58226 -0.17866,4.90817c-0.25915,0.62039 -0.84028,1.25845 -1.4057,1.54509c-0.56346,0.28664 -0.73819,0.60272 -0.50063,0.89329c0.13154,0.15706 0.3848,0.18455 1.23489,0.12958c1.61381,-0.10013 2.75446,-0.69696 3.33559,-1.74927c0.18651,-0.33768 0.2297,-1.01697 0.2886,-4.55085c0.06282,-3.83426 0.09031,-4.20335 0.33965,-4.75111c0.15117,-0.3259 0.36909,-0.67929 0.49082,-0.77549c0.20418,-0.16884 0.21792,0.16491 0.21792,4.75111c-0.00196,5.0613 -0.05301,5.67188 -0.55953,6.64566c-0.11387,0.22185 -0.32983,0.51045 -0.481,0.64788c-0.26504,0.24148 -0.37695,0.85991 -0.1924,1.04642c0.30431,0.30234 1.82976,-0.17277 2.66219,-0.8285c1.41748,-1.12299 1.58632,-2.05161 1.5981,-8.75813l0.00589,-3.93439l0.42996,0.04123l0.42996,0.03927l0.07068,5.14572c0.08049,5.7936 0.09227,5.87802 1.07783,6.99708c0.55953,0.63217 1.12299,0.98163 2.03983,1.25453c1.22704,0.36909 1.59614,-0.20025 0.77156,-1.18778c-0.89721,-1.07391 -0.9404,-1.48423 -0.89132,-7.84129c0.03338,-4.07574 0.03338,-4.07574 0.29645,-3.83819c0.55364,0.5026 0.65966,1.32717 0.65966,5.14965c0,4.74718 0.13547,5.19873 1.8121,6.02723c0.78334,0.38284 1.00323,0.42996 2.00646,0.43388c1.06802,0.00393 1.1328,-0.01178 1.17207,-0.29056c0.03338,-0.22578 -0.09816,-0.37891 -0.59683,-0.68322c-0.65377,-0.40247 -1.10728,-0.91685 -1.39196,-1.56472c-0.10798,-0.24933 -0.18062,-1.88277 -0.2297,-5.24585c-0.07068,-4.6981 -0.08638,-4.91209 -0.37891,-5.64832c-0.39462,-0.98949 -0.99734,-1.77087 -1.76105,-2.28917c-0.19829,-0.12958 -0.39658,-0.23756 -0.65377,-0.31805c0.31609,-0.03141 0.62236,-0.06479 0.91881,-0.10798c3.08626,-0.41032 4.71773,-0.75193 6.02723,-1.25845c2.77017,-1.06605 4.64313,-2.83692 5.65813,-5.34794c0.09031,-0.22381 0.18062,-0.43585 0.25719,-0.60665l0.78138,0.06479c4.02666,0.33965 7.27587,0.82457 9.7751,1.45871c1.37036,0.3475 1.63147,0.38873 1.31146,0.20614c-0.29842,-0.16688 -2.90956,-0.75782 -4.6765,-1.05427l-0.00001,0zm-11.80709,-0.06086c-0.45744,1.00519 -1.73356,2.29702 -2.76428,2.80354c-1.01697,0.5026 -2.61114,0.88543 -4.41735,1.06802c-1.23489,0.12565 -8.12203,0.16295 -9.25877,0.05104c-3.76358,-0.36909 -5.87213,-1.09354 -7.42704,-2.54439c-1.47245,-1.37821 -2.15959,-3.24921 -2.03983,-5.55212c0.07657,-1.44104 0.42407,-2.3461 1.33306,-3.44553c0.82654,-1.00127 1.69626,-1.61969 2.72109,-1.93382c0.85795,-0.26308 3.49069,-0.28664 7.03046,-0.0589c1.56472,0.10013 2.85852,0.10013 4.42128,0c3.70272,-0.23363 6.17447,-0.20811 7.08739,0.0746c1.43515,0.4437 2.74268,1.63736 3.52799,3.22761c0.35339,0.7107 0.4221,1.01305 0.47315,2.11051c0.07068,1.51172 -0.19044,3.11767 -0.68714,4.19943l-0.00001,0.00001zm-18.67067,-6.49056c-2.10659,-0.36909 -3.31007,3.23743 -1.6943,5.07897c0.76764,0.87365 1.44889,1.01697 2.30095,0.48689c0.78923,-0.49278 1.21723,-1.41355 1.21723,-2.60722c0,-1.59221 -0.72445,-2.76232 -1.82387,-2.95864l-0.00001,0zm12.78676,0.21596c-2.10659,-0.36909 -3.31203,3.2335 -1.69626,5.07701c0.7696,0.87365 1.44889,1.01894 2.30291,0.48493c0.78727,-0.49082 1.21723,-1.41355 1.21723,-2.60722c0,-1.58632 -0.72445,-2.76035 -1.82387,-2.95472l-0.00001,0zm-5.66599,7.09132c-0.04516,0.14528 -0.26504,0.36124 -0.48689,0.47707c-0.56149,0.2886 -0.96593,0.18847 -1.55883,-0.35142c-0.36713,-0.33179 -0.53401,-0.50652 -0.64591,-0.15902c-0.10405,0.32198 0.54971,0.96789 1.05427,1.16618c0.46333,0.18455 0.79512,0.19044 1.29772,-0.01963c0.49867,-0.20811 0.93451,-0.76764 0.93451,-1.13084c0,-0.33768 -0.48493,-0.32198 -0.59487,0.01767l0,-0.00001zm-0.62236,-1.12888c0.32001,-0.28271 0.39265,-0.86384 0.08638,-1.17207s-0.92863,-0.26111 -1.17207,0.08442c-0.28271,0.40443 -0.13154,0.71267 0.07068,1.04053c0.31412,0.24345 0.73622,0.29253 1.01501,0.04712z" stroke-width="0" stroke="#000" fill="#1e3a8a"/>
 </g>
</svg>