<svg width="130" height="130" xmlns="http://www.w3.org/2000/svg" stroke="null">
 <g id="Layer_1">
  <title>Layer 1</title>
  <path stroke-width="3" id="svg_3" d="m106.26257,68.00629l14.23744,-7.53012c-0.27988,-2.78999 -0.82079,-5.49646 -1.49747,-8.15704l-15.81576,-2.19009c-1.36891,-3.29763 -3.1766,-6.3561 -5.3015,-9.16362l6.02875,-14.82718c-1.98236,-1.93331 -4.12324,-3.69592 -6.37654,-5.31779l-13.42963,8.43095c-3.14926,-1.65613 -6.54229,-2.91398 -10.10416,-3.72183l-4.85326,-15.03542c-1.37643,-0.10394 -2.75246,-0.21375 -4.15616,-0.21375s-2.77584,0.10728 -4.15641,0.21375l-4.80518,14.90224c-3.65735,0.78197 -7.12529,2.05443 -10.35551,3.731l-13.22049,-8.30693c-2.25045,1.62187 -4.39124,3.38449 -6.37344,5.31779l5.86284,14.41763c-2.28505,2.9286 -4.19816,6.1599 -5.63507,9.64246l-15.31647,2.11828c-0.67382,2.65685 -1.21757,5.36044 -1.49457,8.15671l13.74691,7.27327c0.15574,3.82868 0.79052,7.53929 1.91455,11.03354l-10.36993,11.46598c1.2063,2.502 2.54931,4.92841 4.10296,7.20484l15.26738,-3.2776c2.5032,2.72361 5.35518,5.10993 8.50175,7.08333l-0.57869,15.6208c2.50741,1.13088 5.11265,2.07733 7.79744,2.83384l9.65879,-12.41542c1.71377,0.21879 3.44919,0.36615 5.21926,0.36615c1.91754,0 3.79279,-0.17323 5.63784,-0.42673l9.70909,12.48429c2.689,-0.75564 5.29027,-1.70204 7.79743,-2.83298l-0.58986,-15.90133c2.9991,-1.94162 5.71861,-4.2645 8.11616,-6.8871l15.66443,3.36114c1.55366,-2.27608 2.89686,-4.69991 4.10272,-7.204l-10.7058,-11.84139c1.02842,-3.30974 1.60289,-6.80364 1.77014,-10.40766l0,0zm-23.66368,18.088l-6.75022,4.39438l-4.15183,-6.37899c-2.15985,0.83077 -4.48517,1.33593 -6.93643,1.33593c-10.70575,0 -19.38176,-8.67942 -19.38176,-19.38351c0,-10.70452 8.67601,-19.38058 19.38176,-19.38058c10.70295,0 19.38214,8.67606 19.38214,19.38058c0,5.34915 -2.16694,10.18472 -5.66964,13.6932l4.12598,6.339z" stroke="#1e3a8a" fill="#fff"/>
 </g>
</svg>