<svg width="229" height="180" xmlns="http://www.w3.org/2000/svg" stroke="null">
 <g id="Layer_1">
  <title>Layer 1</title>
  <path fill="#1e3a8a" stroke="#000" stroke-width="0" d="m200.75448,86.56457c-8.40813,-1.41419 -17.15931,-2.34532 -24.26527,-2.59735l-1.25317,-0.04201c0.28704,-0.63009 0.50407,-1.05714 0.57408,-1.12015c0.15402,-0.12602 0.28004,-0.65809 0.29404,-1.17616c0,-0.28704 0.12602,-1.21816 0.32204,-2.45033c1.92526,0.07001 4.4806,0.12602 7.26698,0.14702c10.76045,0.08401 22.01796,0.95213 29.74,2.31731c4.59962,0.81211 6.11882,0.78411 2.72337,-0.04201c-3.43746,-0.83311 -13.63083,-2.05828 -21.75193,-2.59035c-5.45373,-0.37105 -13.27379,-0.51107 -17.88041,-0.43406c0.13302,-0.79811 0.28704,-1.68723 0.44806,-2.59735c0.65109,-3.52148 0.86812,-7.06395 0.88212,-14.11391c0.014,-10.93548 -0.57408,-13.94588 -4.13756,-21.17786c-1.4492,-2.9544 -3.08742,-5.46074 -5.06868,-7.72904c1.72923,-5.10369 1.68723,-13.00776 -0.10501,-19.93869c-1.4772,-5.68477 -1.99527,-6.04882 -7.14796,-4.95667c-4.36859,0.93113 -7.86906,2.1983 -12.35666,4.4596c-2.12129,1.07114 -5.04768,2.73737 -7.16896,4.04655c-5.53074,-1.94626 -11.25051,-3.23444 -17.35534,-3.92753c-6.18883,-0.70009 -21.35987,-0.30804 -26.7436,0.68609c-5.26471,0.97313 -10.00435,2.16329 -14.29592,3.57748c-2.14229,-1.32318 -5.25071,-3.10842 -7.47001,-4.22857c-4.50861,-2.26831 -8.00908,-3.52848 -12.39167,-4.4596c-5.13869,-1.09915 -5.67076,-0.7281 -7.14096,4.95667c-1.82024,7.02195 -1.83425,15.05903 -0.035,20.14872c0.21003,0.58108 0.33605,0.99413 0.38505,1.31618c-7.29498,9.18524 -9.6753,19.46263 -8.09309,33.80757c0.41306,3.7385 1.05014,7.16897 1.93926,10.31239c-4.65563,-0.028 -11.27852,0.14002 -16.06016,0.44806c-8.13509,0.53907 -18.32847,1.75024 -21.76593,2.58335c-3.38846,0.82611 -1.88325,0.85412 2.72337,0.04901c7.72204,-1.35818 18.98655,-2.2403 29.74,-2.31731c2.03027,-0.007 3.92753,-0.04901 5.55875,-0.09101c0.49007,1.65922 1.05014,3.24144 1.68723,4.74664l-0.04901,0.007c-7.10596,0.24503 -15.85013,1.17616 -24.25826,2.59035c-6.30785,1.05714 -15.6191,3.17143 -16.70425,3.78051c-1.14115,0.63709 -0.21003,0.49707 4.67663,-0.7421c8.9122,-2.2543 20.49876,-3.98354 34.85069,-5.1877l1.60322,-0.14002c3.08041,7.15497 7.82705,12.6157 14.53396,16.87228c4.10255,2.61135 10.67644,5.29271 13.98788,5.71277c0.91012,0.11202 3.55648,0.65809 5.88079,1.20416c2.33131,0.54607 6.88893,1.36518 10.12336,1.83425l0.07701,0c-0.06301,0.04201 -0.11902,0.07001 -0.17502,0.11202c-3.92053,2.03728 -6.46887,5.2087 -8.1841,10.20038c-0.7701,0.23103 -1.72923,0.54607 -2.76537,0.90312c-3.7035,1.26017 -5.14569,1.51921 -8.8982,1.54721c-3.89252,0.028 -4.81665,-0.14002 -7.14096,-1.23217c-3.38146,-1.57521 -6.53188,-4.4736 -8.63216,-7.93207c-3.50747,-5.78278 -9.57029,-9.87133 -14.62497,-9.87133c-4.31958,0 -5.13869,1.75024 -2.01627,4.30558c4.70463,3.84352 8.21911,7.76405 9.6613,10.76045c0.81211,1.68023 2.05828,4.27758 2.77937,5.76878c0.7631,1.58921 2.39432,3.74551 3.94853,5.23671c3.65449,3.48647 7.18297,5.1527 12.44768,5.9368c3.52847,0.51807 4.39659,0.51807 8.56215,-0.014c2.00927,-0.24503 3.7035,-0.53207 5.2227,-0.88912c0,1.70823 0,3.6755 0,5.98581c0,12.36367 -0.14702,16.34021 -0.63709,17.50236c-0.92412,2.2123 -2.9964,4.48761 -5.01267,5.50974c-2.00927,1.02214 -2.63235,2.14929 -1.78524,3.18543c0.46906,0.56008 1.37218,0.65809 4.40359,0.46206c5.75477,-0.35705 9.82232,-2.48534 11.8946,-6.23784c0.66509,-1.20416 0.81911,-3.62649 1.02914,-16.22819c0.22403,-13.67285 0.32204,-14.98902 1.21116,-16.94229c0.53907,-1.16216 1.31618,-2.42233 1.75024,-2.76537c0.7281,-0.60208 0.7771,0.58808 0.7771,16.94229c-0.007,18.04844 -0.18903,20.22573 -1.99527,23.6982c-0.40605,0.79111 -1.17616,1.82025 -1.71523,2.31031c-0.94513,0.86112 -1.34418,3.06641 -0.68609,3.7315c1.08515,1.07815 6.52488,-0.61608 9.49328,-2.9544c5.05468,-4.00454 5.65676,-7.31599 5.69877,-31.23122l0.021,-14.0299l1.53321,0.14702l1.53321,0.14002l0.25203,18.34948c0.28704,20.65979 0.32904,20.96083 3.84352,24.95137c1.99527,2.2543 4.00454,3.50047 7.27398,4.4736c4.37559,1.31618 5.69177,-0.7141 2.75137,-4.23557c-3.19943,-3.82952 -3.35345,-5.29271 -3.17843,-27.96178c0.11902,-14.53396 0.11902,-14.53396 1.05714,-13.68685c1.97427,1.79224 2.35232,4.73264 2.35232,18.36348c0,16.92829 0.48307,18.5385 6.46187,21.4929c2.79338,1.36518 3.57748,1.53321 7.15496,1.54721c3.80851,0.014 4.03954,-0.04201 4.17956,-1.03614c0.11902,-0.80511 -0.35005,-1.35118 -2.12829,-2.43633c-2.33131,-1.43519 -3.94853,-3.26944 -4.96367,-5.57975c-0.38505,-0.88912 -0.64409,-6.71391 -0.81911,-18.70653c-0.25203,-16.75326 -0.30804,-17.51637 -1.35118,-20.14172c-1.40719,-3.52848 -3.55648,-6.31485 -6.27985,-8.1631c-0.7071,-0.46206 -1.41419,-0.84711 -2.33131,-1.13415c1.12715,-0.11202 2.2193,-0.23103 3.27644,-0.38505c11.00548,-1.4632 16.82326,-2.68136 21.49289,-4.48761c9.87833,-3.80151 16.55723,-10.11637 20.17672,-19.07058c0.32204,-0.79811 0.64409,-1.55421 0.91712,-2.16329l2.78637,0.23103c14.35893,1.21116 25.94549,2.9404 34.85769,5.2017c4.88666,1.23917 5.81778,1.38619 4.67663,0.7351c-1.06414,-0.59508 -10.3754,-2.70237 -16.67624,-3.75951l0,0.00002zm-42.10367,-0.21703c-1.63122,3.58448 -6.18183,8.19111 -9.85733,9.99735c-3.62649,1.79224 -9.31125,3.15743 -15.75212,3.80851c-4.40359,0.44806 -28.9629,0.58108 -33.01644,0.18202c-13.42081,-1.31618 -20.93982,-3.89953 -26.48456,-9.07323c-5.25071,-4.91466 -7.70104,-11.58657 -7.27398,-19.79867c0.27304,-5.13869 1.5122,-8.36613 4.75364,-12.28666c2.9474,-3.57048 6.04881,-5.77578 9.70331,-6.89593c3.05941,-0.93813 12.44768,-1.02214 25.07037,-0.21003c5.57975,0.35705 10.19337,0.35705 15.76612,0c13.20378,-0.83311 22.01796,-0.7421 25.2734,0.26604c5.11769,1.58221 9.78032,5.83879 12.58069,11.50955c1.26017,2.53434 1.5052,3.61249 1.68723,7.52602c0.25203,5.39073 -0.67909,11.1175 -2.45033,14.97502l0,0.00001zm-66.57896,-23.14513c-7.51201,-1.31618 -11.80359,11.54456 -6.04181,18.11145c2.73737,3.11542 5.1667,3.62649 8.2051,1.73623c2.81438,-1.75724 4.34058,-5.04068 4.34058,-9.29726c0,-5.67777 -2.58335,-9.85033 -6.50388,-10.55043l0.00001,0.00001zm45.59714,0.7701c-7.51201,-1.31618 -11.81059,11.53056 -6.04881,18.10445c2.74437,3.11542 5.1667,3.63349 8.21211,1.72923c2.80738,-1.75024 4.34058,-5.04068 4.34058,-9.29726c0,-5.65676 -2.58335,-9.84333 -6.50388,-10.53642zm-20.20472,25.28742c-0.16102,0.51807 -0.94513,1.28817 -1.73623,1.70123c-2.00227,1.02914 -3.44446,0.67209 -5.55875,-1.25317c-1.30918,-1.18316 -1.90426,-1.80624 -2.30331,-0.56708c-0.37105,1.14816 1.96026,3.45147 3.75951,4.15856c1.65222,0.65809 2.83538,0.67909 4.62762,-0.07001c1.77824,-0.7421 3.33245,-2.73737 3.33245,-4.03254c0,-1.20416 -1.72923,-1.14816 -2.12129,0.06301zm-2.2193,-4.02554c1.14115,-1.00814 1.40019,-3.08042 0.30804,-4.17956s-3.31145,-0.93113 -4.17956,0.30104c-1.00814,1.44219 -0.46906,2.54134 0.25203,3.7105c1.12015,0.86812 2.62535,1.04314 3.61949,0.16802z" id="svg_1"/>
 </g>

</svg>