<svg id="LOGO" xmlns="http://www.w3.org/2000/svg" xmlns:xlink="http://www.w3.org/1999/xlink" viewBox="0 0 617.56 617.56"><defs><style>.cls-1{fill:url(#linear-gradient);}.cls-2{fill:url(#linear-gradient-2);}.cls-3{fill:url(#linear-gradient-3);}.cls-4{fill:url(#linear-gradient-4);}.cls-5{fill:url(#linear-gradient-5);}.cls-6{fill:url(#linear-gradient-6);}</style><linearGradient id="linear-gradient" x1="748.43" y1="455.47" x2="747.95" y2="454.65" gradientUnits="userSpaceOnUse"><stop offset="0" stop-color="#40b9fe"/><stop offset="0.22" stop-color="#37c1fe"/><stop offset="0.56" stop-color="#1fd6fe"/><stop offset="0.99" stop-color="#06edfe"/></linearGradient><linearGradient id="linear-gradient-2" x1="671.58" y1="498.74" x2="603.36" y2="380.58" xlink:href="#linear-gradient"/><linearGradient id="linear-gradient-3" x1="539.86" y1="455.36" x2="539.51" y2="454.75" xlink:href="#linear-gradient"/><linearGradient id="linear-gradient-4" x1="680.07" y1="602.89" x2="602.27" y2="468.14" xlink:href="#linear-gradient"/><linearGradient id="linear-gradient-5" x1="802.7" y1="779.45" x2="493.87" y2="244.55" xlink:href="#linear-gradient"/><linearGradient id="linear-gradient-6" x1="342.46" y1="487.7" x2="291.76" y2="399.89" xlink:href="#linear-gradient"/></defs><path class="cls-1" d="M748.07,454.58c.16.62.24.95.24.95A3.79,3.79,0,0,0,748.07,454.58Z" transform="translate(-339.51 -203.22)"/><path class="cls-2" d="M584,391.75c-31.69,20.25-42.53,56.52-44.22,62.83,3.15-8.5,34.55-18.37,34.55-18.37,16.7,16.7,51.45,23.38,69.59,25.81,18.14-2.43,52.88-9.11,69.58-25.81,0,0,31.41,9.87,34.55,18.37-1.68-6.31-12.52-42.58-44.21-62.83,0,0-23.2,54.12-59.92,57C607.21,445.87,584,391.75,584,391.75Z" transform="translate(-339.51 -203.22)"/><path class="cls-3" d="M539.8,454.58a4.9,4.9,0,0,0-.24.95S539.64,455.2,539.8,454.58Z" transform="translate(-339.51 -203.22)"/><path class="cls-4" d="M754.11,507.72c-15.34-9.92-80.37-20.69-110.17-21.29-29.81.6-94.84,11.37-110.18,21.29-16.43,10.63-15.46,43.49-15.46,43.49,10.06-24.31,101.56-29,125.64-29.8,24.07.81,115.57,5.49,125.63,29.8C769.57,551.21,770.54,518.35,754.11,507.72Z" transform="translate(-339.51 -203.22)"/><path class="cls-5" d="M648.29,203.22c-170.54,0-308.78,138.25-308.78,308.78S477.75,820.78,648.29,820.78,957.06,682.53,957.06,512,818.82,203.22,648.29,203.22Zm152.21,88s-29,78.28-81.18,26.09Zm-230,22.23c-52.19,52.18-81.18-26.1-81.18-26.1Zm73.93,459.06L539.8,590.84H748.07ZM772.47,414c51.22,47.35,46.39,146.9,46.39,146.9L758,651.72l11.59-100.51-125.63-4.83L518.3,551.21l11.6,100.51L469,560.88S464.18,461.33,515.4,414c0,0-74.42,38.65-80.21,67.65,0,0,7.73-86,89.87-109.21,19.33-6.77,104.12-8.7,104.12-8.7s-6.51,30.93,14.76,43.49c21.26-12.56,14.75-43.49,14.75-43.49s84.79,1.93,104.12,8.7c82.15,23.19,89.88,109.21,89.88,109.21C846.89,452.63,772.47,414,772.47,414Z" transform="translate(-339.51 -203.22)"/><polygon class="cls-6" points="256.11 420.47 304.91 509.38 353.72 420.47 256.11 420.47"/></svg>